<mxfile host="app.diagrams.net" modified="2022-07-12T06:33:16.940Z" agent="5.0 (X11; Linux x86_64) AppleWebKit/537.36 (KHTML, like Gecko) Chrome/103.0.0.0 Safari/537.36" etag="8AHEDA0Rk4HMiPWUtwIa" version="20.0.4" type="github">
  <diagram id="j9fgoMHlRESabCVzAFUy" name="Page-1">
    <mxGraphModel dx="981" dy="528" grid="1" gridSize="10" guides="1" tooltips="1" connect="1" arrows="1" fold="1" page="1" pageScale="1" pageWidth="850" pageHeight="1100" math="0" shadow="0">
      <root>
        <mxCell id="0" />
        <mxCell id="1" parent="0" />
        <mxCell id="lCyRS-yCL0ZU_U1mTNhh-1" value="Context&lt;br&gt;Encoder" style="rounded=1;whiteSpace=wrap;html=1;" vertex="1" parent="1">
          <mxGeometry x="80" y="360" width="120" height="60" as="geometry" />
        </mxCell>
        <mxCell id="lCyRS-yCL0ZU_U1mTNhh-2" value="Source&lt;br&gt;Encoder" style="rounded=1;whiteSpace=wrap;html=1;" vertex="1" parent="1">
          <mxGeometry x="240" y="360" width="120" height="60" as="geometry" />
        </mxCell>
        <mxCell id="lCyRS-yCL0ZU_U1mTNhh-5" value="" style="edgeStyle=orthogonalEdgeStyle;rounded=0;orthogonalLoop=1;jettySize=auto;html=1;" edge="1" parent="1" source="lCyRS-yCL0ZU_U1mTNhh-3" target="lCyRS-yCL0ZU_U1mTNhh-4">
          <mxGeometry relative="1" as="geometry" />
        </mxCell>
        <mxCell id="lCyRS-yCL0ZU_U1mTNhh-3" value="Target Embedding" style="rounded=0;whiteSpace=wrap;html=1;" vertex="1" parent="1">
          <mxGeometry x="470" y="360" width="120" height="60" as="geometry" />
        </mxCell>
        <mxCell id="lCyRS-yCL0ZU_U1mTNhh-7" value="" style="edgeStyle=orthogonalEdgeStyle;rounded=0;orthogonalLoop=1;jettySize=auto;html=1;" edge="1" parent="1" source="lCyRS-yCL0ZU_U1mTNhh-4" target="lCyRS-yCL0ZU_U1mTNhh-6">
          <mxGeometry relative="1" as="geometry" />
        </mxCell>
        <mxCell id="lCyRS-yCL0ZU_U1mTNhh-4" value="Self-Attention" style="rounded=0;whiteSpace=wrap;html=1;" vertex="1" parent="1">
          <mxGeometry x="470" y="270" width="120" height="60" as="geometry" />
        </mxCell>
        <mxCell id="lCyRS-yCL0ZU_U1mTNhh-6" value="Self-Attention" style="rounded=0;whiteSpace=wrap;html=1;" vertex="1" parent="1">
          <mxGeometry x="590" y="130" width="120" height="60" as="geometry" />
        </mxCell>
      </root>
    </mxGraphModel>
  </diagram>
</mxfile>
